<?xml version="1.0" encoding="utf-8"?>
<!-- Generator: Adobe Illustrator 16.0.0, SVG Export Plug-In . SVG Version: 6.00 Build 0)  -->
<!DOCTYPE svg PUBLIC "-//W3C//DTD SVG 1.1//EN" "http://www.w3.org/Graphics/SVG/1.1/DTD/svg11.dtd">
<svg version="1.1" id="Camada_1" xmlns="http://www.w3.org/2000/svg" xmlns:xlink="http://www.w3.org/1999/xlink" x="0px" y="0px"
	 width="501px" height="229px" viewBox="0 0 501 229" enable-background="new 0 0 501 229" xml:space="preserve">
<path fill-rule="evenodd" clip-rule="evenodd" fill="#FFFFFF" d="M115.611,19c17.414,0,33.714,4.761,47.679,13.043l-21.276,31.53
	c-7.857-4.239-16.848-6.646-26.403-6.646c-30.754,0-55.685,24.931-55.685,55.685c0,30.755,24.931,55.685,55.685,55.685
	c14.772,0,28.198-5.754,38.166-15.141v-20.59h-36.566V94.64h69.247v1.677h5.246v69.248h-0.097l0.586,0.893
	c-16.943,24.051-44.926,39.768-76.581,39.768c-51.7,0-93.611-41.912-93.611-93.613C22,60.912,63.911,19,115.611,19L115.611,19z"/>
<path fill-rule="evenodd" clip-rule="evenodd" fill="#FFFFFF" d="M255.68,19c51.699,0,93.611,41.911,93.611,93.611
	c0,51.701-41.912,93.613-93.611,93.613c-51.701,0-93.612-41.912-93.612-93.613C162.067,60.912,203.979,19,255.68,19L255.68,19z
	 M255.68,56.927c30.754,0,55.686,24.931,55.686,55.685c0,30.755-24.932,55.685-55.686,55.685c-30.755,0-55.686-24.93-55.686-55.685
	C199.994,81.857,224.925,56.927,255.68,56.927L255.68,56.927z"/>
<path fill-rule="evenodd" clip-rule="evenodd" fill="#BABBBB" d="M311.707,19c51.699,0,93.611,41.911,93.611,93.611
	c0,51.701-41.912,93.613-93.611,93.613c-51.701,0-93.612-41.912-93.612-93.613c0-18.789,5.539-36.281,15.068-50.941
	c6.886-3.048,14.502-4.744,22.517-4.744c10.215,0,19.783,2.752,28.012,7.553c-16.549,9.652-27.67,27.594-27.67,48.132
	c0,30.755,24.932,55.685,55.686,55.685s55.686-24.93,55.686-55.685c0-22.74-13.633-42.293-33.17-50.941
	c-11.742-18.067-29.543-31.831-50.529-38.404C292.539,20.496,301.949,19,311.707,19L311.707,19z"/>
<polygon fill-rule="evenodd" clip-rule="evenodd" fill="#FFFFFF" points="376.199,19 414.127,19 414.127,206.225 376.199,206.225 
	376.199,19 "/>
<polygon fill-rule="evenodd" clip-rule="evenodd" fill="#FFFFFF" points="376.199,206.225 376.199,168.299 477.74,168.299 
	477.74,206.225 376.199,206.225 "/>
</svg>
